# xmcd
#
# Track frame offsets: 
#        150
#        12453
#        26347
#        49512
#        59454
#        74937
#        97608
#        119843
#        133376
#        151623
#        162082
#        175415
#        189376
#        200222
#        208241
#        224232
#        237892
#        250492
#
# Disc length: 3568 seconds
#
# Revision: 1
# Processed by: cddbd v1.5.2PL0 Copyright (c) Steve Scherf et al.
# Submitted via: ExactAudioCopyFreeDBPlugin 1.0
#
DISCID=180dee12
DTITLE=Various Artist - Blues Christmas [Cleopatra Records]
DYEAR=2015
DGENRE=Holiday
TTITLE0=Joe Louis Walker - Christmas Comes But Once a Year
TTITLE1=Larry McCray - Santa Claus Wants Some Lovin'
TTITLE2=Steve Cropper - Let's Make Christmas Merry, Baby
TTITLE3=Popa Chubby - Back Door Santa
TTITLE4=Paul Nelson Band - Christmas Tears
TTITLE5=Kenny Neal - I'll Be Home for Christmas
TTITLE6=Eric Gales - Little Drummer Boy
TTITLE7=Chris Spedding - Blue Christmas
TTITLE8=Pat Travers - Happy Xmas (War is Over)
TTITLE9=Leslie West - Silent Night
TTITLE10=Foghat - Run Rudolph Run
TTITLE11=Wolf Mail - I Want To Spend The Christmas With You
TTITLE12=Debbie Davies - Boogie Woogie Santa Claus
TTITLE13=James Montgomery Band - Deck the Halls (ft Paul Nelson)
TTITLE14=Harvey Mandel - Santa Claus Is Coming to Town
TTITLE15=Charles Brown - Merry Christmas Baby
TTITLE16=Annie Marie Lewis - O Come All Ye Faithful
TTITLE17=Lightnin' Hopkins - Santa
EXTD=
EXTT0=
EXTT1=
EXTT2=
EXTT3=
EXTT4=
EXTT5=
EXTT6=
EXTT7=
EXTT8=
EXTT9=
EXTT10=
EXTT11=
EXTT12=
EXTT13=
EXTT14=
EXTT15=
EXTT16=
EXTT17=
PLAYORDER=
